<svg width="200" height="40" viewBox="0 0 200 40" fill="none" xmlns="http://www.w3.org/2000/svg">
<path d="M132.557 21.1877C133.757 20.0025 133.968 18.902 133.192 18.0555H134.674C134.674 18.0555 136.437 18.0555 137.143 17.35C137.848 16.6728 136.226 16.701 136.226 16.701C136.226 16.701 133.122 16.701 132.063 16.701C130.935 16.701 129.383 16.5035 129.383 16.5035C128.607 16.3906 127.76 16.3342 126.843 16.3342C120.917 16.3342 113.862 18.4788 111.111 21.1595C109.277 22.9372 109.841 24.4892 112.099 25.3076C113.227 25.7308 114.85 25.9848 116.825 25.9848C116.966 25.9848 117.108 25.9848 117.249 25.9848C117.601 25.9566 117.884 25.9566 118.236 25.9566C118.307 25.9566 118.307 25.9566 118.377 25.9566C121.129 25.9566 122.681 26.6338 121.834 27.4804C120.988 28.3269 118.025 29.0042 115.273 29.0042C112.522 29.0042 111.323 28.5527 111.393 28.0447C111.464 27.7061 112.663 27.6497 112.663 27.2264C112.663 26.9442 111.534 26.916 110.265 26.916C109.136 26.916 106.173 27.17 105.044 28.2705C103.704 29.5685 107.16 30.8101 113.369 30.8101C119.577 30.8101 126.067 29.4274 127.76 27.7343C129.03 26.521 127.548 25.5051 124.374 24.9972C127.831 24.1224 130.935 22.7397 132.557 21.1877ZM125.855 21.1877C124.092 22.909 121.199 24.3764 119.012 24.715C118.73 24.7714 118.377 24.7996 118.095 24.7996C117.954 24.7996 117.742 24.7996 117.601 24.7714C115.838 24.5457 115.908 23.0501 117.742 21.2159C119.788 19.2406 123.245 17.6322 125.503 17.6322C127.76 17.604 127.901 19.2124 125.855 21.1877Z" fill="white"/>
<path d="M100.176 25.0254C103.633 24.1506 106.737 22.7679 108.36 21.1877C109.559 20.0025 109.771 18.902 108.995 18.0555H110.476C110.476 18.0555 112.24 18.0555 112.945 17.35C113.651 16.6728 112.028 16.701 112.028 16.701C112.028 16.701 108.924 16.701 107.866 16.701C106.737 16.701 105.185 16.5035 105.185 16.5035C104.409 16.3906 103.563 16.3342 102.645 16.3342C96.7196 16.3342 89.6649 18.4788 86.9136 21.1595C85.0794 22.9372 85.6437 24.4892 87.9012 25.3076C89.03 25.7308 90.6525 25.9848 92.6279 25.9848C92.7689 25.9848 92.91 25.9848 93.0511 25.9848C93.4039 25.9566 93.6861 25.9566 94.0388 25.9566C94.1093 25.9566 94.1093 25.9566 94.1799 25.9566C96.9312 25.9566 98.4832 26.6338 97.6367 27.4804C96.7901 28.3269 93.8272 29.0042 91.0758 29.0042C88.3245 29.0042 87.1252 28.5527 87.1958 28.0447C87.2663 27.7061 88.4656 27.6497 88.4656 27.2264C88.4656 26.9442 87.3368 26.916 86.067 26.916C84.9383 26.916 81.9753 27.17 80.8465 28.2705C79.5062 29.5685 82.963 30.8101 89.1711 30.8101C95.3792 30.8101 101.869 29.4274 103.563 27.7343C104.832 26.5492 103.351 25.5051 100.176 25.0254ZM94.8148 24.6868C94.5326 24.7432 94.1799 24.7714 93.8977 24.7714C93.7566 24.7714 93.545 24.7714 93.4039 24.7432C91.6402 24.5175 91.7108 23.0219 93.545 21.1877C95.5908 19.2124 99.0476 17.604 101.305 17.604C103.492 17.604 103.633 19.2124 101.587 21.1877C99.8942 22.909 97.0017 24.3481 94.8148 24.6868Z" fill="white"/>
<path d="M151.746 19.805C152.24 19.805 154.286 19.0149 155.414 17.9144C156.543 16.8139 154.638 16.3624 153.862 16.3624C151.252 16.3624 148.077 17.604 146.667 18.2248C146.878 17.9708 147.019 17.6886 147.09 17.604C147.231 17.1807 147.866 16.3624 146.314 16.3624C144.762 16.3624 142.434 16.8139 142.434 16.8139C140.176 17.1525 137.778 17.999 137.495 18.253C137.213 18.507 138.201 18.5352 139.048 18.5916C140.106 18.6763 139.4 19.4946 139.4 19.4946C139.4 19.4946 134.603 24.1224 133.686 24.9971L133.404 25.2793C132.981 25.6744 132.628 26.3516 134.18 26.3516H138.413C138.413 26.3516 139.682 26.3516 140.882 25.1947C142.081 24.0377 145.679 20.5387 145.679 20.5387C145.679 20.5387 147.372 18.7609 148.995 18.7609C148.995 18.7609 150.406 18.6763 150.617 19.2124C150.899 19.7486 151.252 19.805 151.746 19.805Z" fill="white"/>
<path d="M58.7653 15.149C60.9523 15.149 63.492 14.3871 64.4796 13.4559C65.4673 12.5247 64.4796 11.7628 62.2927 11.7628C60.1057 11.7628 57.566 12.5247 56.5784 13.4559C55.6613 14.3871 56.5784 15.149 58.7653 15.149Z" fill="white"/>
<path d="M54.4621 24.2917C53.4039 24.207 54.3915 23.2194 54.3915 23.2194C54.3915 23.2194 59.1887 18.6198 60.1058 17.7168C60.5291 17.3218 61.164 16.3624 59.612 16.3624C58.06 16.3624 55.3792 16.8703 55.3792 16.8703C53.1217 17.2089 50.5115 17.999 50.2293 18.253C49.9471 18.507 50.9348 18.5352 51.7813 18.5916C52.8395 18.6763 52.1341 19.4946 52.1341 19.4946C52.1341 19.4946 47.0547 24.3763 46.1376 25.2793C45.7143 25.6744 45.0794 26.6338 46.6314 26.6338C48.1834 26.6338 51.0759 26.267 51.0759 26.267C53.3333 25.9284 55.2381 25.4769 56.0141 24.7432C56.3669 24.3481 55.3087 24.3481 54.4621 24.2917Z" fill="white"/>
<path d="M82.5396 24.7432C82.9629 24.3481 81.9047 24.3481 81.0581 24.2917C79.9999 24.207 80.9876 23.2194 80.9876 23.2194L84.656 19.6639C84.656 19.6639 88.395 16.3624 81.1992 16.3624C76.8253 16.3624 73.4391 17.7451 71.4637 18.8456C71.4637 18.8456 72.1692 17.8015 72.3103 17.604C72.4514 17.1807 73.0863 16.3624 71.5343 16.3624C69.9823 16.3624 67.6542 16.8139 67.6542 16.8139C65.3967 17.1525 62.9981 17.999 62.716 18.253C62.4338 18.507 63.4214 18.5352 64.268 18.5916C65.3262 18.6763 64.6207 19.4946 64.6207 19.4946C64.6207 19.4946 59.8235 24.1224 58.9064 24.9971L58.6242 25.2793C58.201 25.6744 57.8482 26.3516 59.4003 26.3516H63.6331C63.6331 26.3516 64.9029 26.3516 66.1022 25.1947C67.3015 24.0377 70.8994 20.5387 70.8994 20.5387C70.8994 20.5387 73.5096 18.1401 76.6137 18.1401C79.7177 18.1401 78.589 19.4946 78.589 19.4946C78.589 19.4946 73.5096 24.3763 72.5925 25.2793C72.1692 25.6744 71.5343 26.6338 73.0863 26.6338C74.6383 26.6338 77.5308 26.267 77.5308 26.267C79.8588 25.9284 81.7636 25.4769 82.5396 24.7432Z" fill="white"/>
<path d="M171.781 24.2917C170.723 24.207 171.711 23.2194 171.711 23.2194C171.711 23.2194 176.508 18.6198 177.425 17.7168C177.848 17.3218 178.483 16.3624 176.931 16.3624C175.379 16.3624 175.027 16.5317 172.981 17.1243C172.487 17.2936 171.923 17.4911 171.358 17.6886C170.582 16.8703 169.03 16.3624 166.702 16.3624C161.693 16.3624 155.203 18.7045 152.24 21.5545C149.206 24.4328 150.9 26.7749 155.908 26.7749C158.66 26.7749 161.905 26.0694 164.727 24.9407C164.303 25.4204 163.457 26.6338 164.938 26.6338C166.49 26.6338 168.042 26.4081 169.242 26.2105C170.441 26.013 172.557 25.5051 173.333 24.7432C173.686 24.3481 172.628 24.3481 171.781 24.2917ZM166.984 21.5827C164.868 23.6427 161.341 25.3358 159.083 25.3358C156.896 25.3358 156.826 23.6709 158.942 21.5827C161.058 19.5228 164.586 17.8297 166.843 17.8297C169.03 17.8297 169.101 19.4946 166.984 21.5827Z" fill="white"/>
<path d="M183.986 22.5704C183.986 22.5704 186.384 22.5704 192.663 21.6956C199.012 20.7926 199.788 19.3817 199.929 18.4505C200.141 17.5193 197.178 16.3624 193.51 16.3624C187.372 16.3624 180.035 18.7045 177.072 21.5545C174.109 24.4046 176.649 26.7749 182.787 26.7749C183.422 26.7749 184.056 26.7749 184.691 26.7467C193.016 26.7467 195.979 24.715 196.332 24.5739C196.543 24.4892 196.825 24.207 196.755 23.9813C196.684 23.8684 196.473 23.7555 196.049 23.6709C194.85 23.4734 193.933 23.9531 193.933 23.9531C193.933 23.9531 190.97 25.2793 186.667 25.2793C182.434 25.2793 182.504 23.558 182.716 23.0219C182.928 22.6268 183.986 22.5704 183.986 22.5704ZM187.654 18.9867C190.123 17.9708 192.734 17.6322 193.933 17.9708C195.485 18.4505 194.427 19.2971 191.887 20.2847C189.418 21.3006 184.339 21.3288 184.339 21.3288C184.339 21.3288 185.185 19.9743 187.654 18.9867Z" fill="white"/>
<path d="M50.7231 12.1861C50.7231 10.2108 46.2081 9.56177 41.4109 9.56177C22.0106 9.81573 0.846561 16.2495 0 22.8243C0 26.013 5.99647 27.7061 17.284 27.7061C25.1852 27.7061 45.1499 24.715 45.1499 19.7203C45.1499 16.9832 38.5891 16.8985 38.5891 16.8985C38.5891 16.8985 49.3827 16.0237 50.7231 12.1861ZM26.5961 17.8297C26.5961 17.8297 30.4056 18.4505 30.4056 21.0184C30.4056 24.6021 21.5168 27.0853 17.8483 27.0853C12.9806 27.0853 13.1217 24.8843 13.1217 24.0942C13.1922 19.0431 24.3386 10.9727 32.8748 10.9727C32.8748 10.9727 36.6843 11.0856 36.6843 13.0044C36.6843 15.5723 28.4303 17.8297 26.5961 17.8297Z" fill="white"/>
</svg>
