<svg width="200" height="40" viewBox="0 0 200 40" fill="none" xmlns="http://www.w3.org/2000/svg">
<g clip-path="url(#clip0_122_4)">
<path fill-rule="evenodd" clip-rule="evenodd" d="M34.9 4.43637C27.6 4.43637 21.1 14.5455 17.8 21.0909C15.4 26.0364 13.4 34.9091 19.6 36.6546C26.1 38.6182 32.9 30.8364 33.4 26.0364C34 21.7455 31.3 20.4364 29 18.4727C33.7 16.1455 34.3 15.8546 37.8 11.5636C39.6 7.49092 37.9 4.65456 34.9 4.43637ZM15.8 9.23637C29.9 0.145464 48.2 -2.90908 54.1 3.12728C56.1 8.72728 50.6 13.0182 44.6 15.6364C49.9 17.3818 52.9 19.7091 50.2 24.0727C47.9 27.0546 46.4 28.5818 42.2 30.9818C27.8 40.2909 10.1 42.6182 2.69998 36.8C-3.70002 30.3273 1.29998 18.4727 15.8 9.23637Z" fill="#E50013"/>
<path d="M90.5001 18.7637C90.5001 15.7818 90.6001 13.0182 90.6001 11.7091C90.6001 10.3273 88.6001 9.30911 86.4001 9.30911C84.2001 9.30911 82.4001 10.4727 82.4001 11.7091C82.4001 12.0727 82.4001 12.9455 82.4001 13.9637H71.6001C71.6001 12.8727 71.6001 11.9273 71.6001 11.5637C71.6001 10.6182 70.8001 9.30911 67.9001 9.30911C65.0001 9.30911 63.7001 10.5455 63.7001 11.7818C63.7001 11.7818 63.6001 15.2727 63.6001 18.2546C63.6001 21.1637 68.7001 24.0727 76.8001 24.0727C84.0001 24.0727 90.5001 21.9637 90.5001 18.7637ZM71.6001 18.9818C71.6001 18.5455 71.6001 17.4546 71.6001 16.2182H82.3001C82.3001 17.5273 82.3001 18.7637 82.3001 19.3455C82.3001 20.6546 79.7001 21.9637 76.8001 21.9637C73.6001 21.9637 71.6001 20.5091 71.6001 18.9818Z" fill="#231916"/>
<path d="M99.9002 8.29092C97.6002 8.29092 95.7002 9.38183 95.7002 10.7637V22.2546C95.7002 23.6364 97.6002 24.7273 99.9002 24.7273C102.3 24.7273 104.2 23.6364 104.2 22.2546V10.7637C104.2 9.38183 102.3 8.29092 99.9002 8.29092Z" fill="#231916"/>
<path d="M86.7002 24.6546C77.0002 24.6546 69.2002 27.3455 69.2002 30.6909C69.2002 34.0364 77.0002 36.8 86.7002 36.8C96.3002 36.8 104.1 34.1091 104.1 30.6909C104.1 27.3455 96.3002 24.6546 86.7002 24.6546ZM86.7002 34.5455C81.8002 34.5455 77.9002 32.8728 77.9002 30.6909C77.9002 28.5818 81.8002 26.9091 86.7002 26.9091C91.5002 26.9091 95.4002 28.5818 95.4002 30.6909C95.4002 32.8728 91.5002 34.5455 86.7002 34.5455Z" fill="#231916"/>
<path d="M114.6 14.1091H141C141.7 14.3273 141.8 14.7636 141.4 15.3455C140.9 16.0727 136.7 21.2364 135.9 22.4C135 23.5636 135.2 25.4546 137.2 26.4C139.2 27.4182 142.4 26.7636 143.1 25.6727C143.9 24.5818 149.3 17.8909 149.9 16.9455C150.5 16 151.4 14.3273 149.1 12.8C146.8 11.2727 142.8 11.5636 142.8 11.5636H114.6C113.7 11.5636 112.9 12.1455 112.9 12.8C112.9 13.5273 113.7 14.1091 114.6 14.1091Z" fill="#231916"/>
<path d="M153.2 27.2C152.8 26.6909 151.6 26.1818 150.8 26.4727C146.8 28.0727 138.7 29.6 130.7 29.6C122.7 29.6 116.3 28.0727 111.7 26.4727C111 26.2546 110 26.4727 109.6 26.9818C109.2 27.4182 109.4 28.6546 109.9 28.8727C114.8 30.8364 123.6 32.3637 130.6 32.3637C136.7 32.3637 147.8 30.7637 152.6 29.0182C153.3 28.6546 153.5 27.7091 153.2 27.2Z" fill="#231916"/>
<path d="M195.9 8.29092C193.7 8.29092 191.8 9.38183 191.8 10.7637V33.8182C191.8 35.2 193.6 36.2909 195.9 36.2909C198.1 36.2909 200 35.2 200 33.8182V10.7637C200 9.38183 198.2 8.29092 195.9 8.29092Z" fill="#231916"/>
<path d="M185.6 10.4C183.4 10.4 181.7 11.4909 181.7 12.8728V22.9091H175.4C174.5 22.9091 173.7 23.4909 173.7 24.1455C173.7 24.8 174.5 25.3091 175.4 25.3091H181.7V31.5637C181.7 32.9455 183.4 34.0364 185.6 34.0364C187.8 34.0364 189.5 32.9455 189.5 31.5637V12.8728C189.5 11.4909 187.8 10.4 185.6 10.4Z" fill="#231916"/>
<path d="M176.2 28.2182C174.9 29.0182 172.8 29.6 170.9 29.6C169.1 29.6 167.4 28.5091 167.1 28.0727C167 27.9273 166.9 27.2 166.9 27.0546V21.0182C166.9 20.9455 166.9 20.9455 166.9 20.9455H174.8C175.5 20.9455 176.6 20.5818 177.1 20.1455C177.9 19.6364 178.3 18.9091 178.3 18.1091V14.3273C178.3 12.8727 176.7 11.6364 174.7 11.6364H174.4H174H161C160.1 11.6364 159.3 12.2182 159.3 12.8727C159.3 13.5273 160.1 14.1091 161 14.1091H170.4C170.4 14.1818 170.4 14.2546 170.4 14.3273V18.1091C170.4 18.1818 170.4 18.2546 170.4 18.3273H163.3H162.8C160.7 18.3273 159.1 19.4909 159.1 21.0182V27.0546C159.1 27.3455 159.2 27.6364 159.4 27.8546C159.5 28.1455 159.6 28.5091 159.9 28.8C161.7 30.8364 166.5 32 170.6 32C174 32 177.4 31.2727 178.9 30.1091C179.3 29.8182 179.3 28.9455 178.8 28.5818C178.3 28.0727 176.8 27.9273 176.2 28.2182Z" fill="#231916"/>
</g>
<defs>
<clipPath id="clip0_122_4">
<rect width="200" height="40" fill="white"/>
</clipPath>
</defs>
</svg>
